<svg xmlns="http://www.w3.org/2000/svg" width="43.526" height="43.526" viewBox="0 0 43.526 43.526">
  <path id="bxl-linkedin-square" d="M44.108,3H5.418A2.417,2.417,0,0,0,3,5.418v38.69a2.417,2.417,0,0,0,2.418,2.418h38.69a2.417,2.417,0,0,0,2.418-2.418V5.418A2.417,2.417,0,0,0,44.108,3ZM15.91,40.087H9.449V19.315H15.91ZM12.68,16.479a3.743,3.743,0,1,1,3.743-3.743A3.743,3.743,0,0,1,12.68,16.479ZM40.089,40.087H33.635v-10.1c0-2.408-.044-5.506-3.356-5.506-3.361,0-3.871,2.626-3.871,5.337V40.089H19.958V19.318h6.19v2.839h.089a6.777,6.777,0,0,1,6.1-3.354c6.539,0,7.745,4.3,7.745,9.895V40.087Z" transform="translate(-3 -3)" fill="#fff"/>
</svg>
