<svg xmlns="http://www.w3.org/2000/svg" width="216.761" height="455.316" viewBox="0 0 216.761 455.316">
  <g id="Group_12" data-name="Group 12" transform="translate(-1703 -5.506)" opacity="0.2">
    <path id="Path_370" data-name="Path 370" d="M1340.918,1230.145a6.142,6.142,0,1,0-6.143-6.142A6.141,6.141,0,0,0,1340.918,1230.145Z" transform="translate(368.225 -1212.353)" fill="#fff"/>
    <path id="Path_371" data-name="Path 371" d="M1375.686,1230.145a6.142,6.142,0,1,0-6.143-6.142A6.142,6.142,0,0,0,1375.686,1230.145Z" transform="translate(367.536 -1212.353)" fill="#fff"/>
    <path id="Path_372" data-name="Path 372" d="M1410.453,1230.145a6.142,6.142,0,1,0-6.143-6.142A6.141,6.141,0,0,0,1410.453,1230.145Z" transform="translate(366.848 -1212.353)" fill="#fff"/>
    <path id="Path_373" data-name="Path 373" d="M1445.222,1230.145a6.142,6.142,0,1,0-6.143-6.142A6.141,6.141,0,0,0,1445.222,1230.145Z" transform="translate(366.159 -1212.353)" fill="#fff"/>
    <path id="Path_374" data-name="Path 374" d="M1479.99,1230.145a6.142,6.142,0,1,0-6.143-6.142A6.141,6.141,0,0,0,1479.99,1230.145Z" transform="translate(365.47 -1212.353)" fill="#fff"/>
    <path id="Path_375" data-name="Path 375" d="M1514.757,1230.145a6.142,6.142,0,1,0-6.142-6.142A6.141,6.141,0,0,0,1514.757,1230.145Z" transform="translate(364.782 -1212.353)" fill="#fff"/>
    <path id="Path_376" data-name="Path 376" d="M1549.525,1230.145a6.142,6.142,0,1,0-6.143-6.142A6.142,6.142,0,0,0,1549.525,1230.145Z" transform="translate(364.093 -1212.353)" fill="#fff"/>
    <path id="Path_377" data-name="Path 377" d="M1340.918,1264.913a6.142,6.142,0,1,0-6.143-6.142A6.141,6.141,0,0,0,1340.918,1264.913Z" transform="translate(368.225 -1213.042)" fill="#fff"/>
    <path id="Path_378" data-name="Path 378" d="M1375.686,1264.913a6.142,6.142,0,1,0-6.143-6.142A6.142,6.142,0,0,0,1375.686,1264.913Z" transform="translate(367.536 -1213.042)" fill="#fff"/>
    <path id="Path_379" data-name="Path 379" d="M1410.453,1264.913a6.142,6.142,0,1,0-6.143-6.142A6.141,6.141,0,0,0,1410.453,1264.913Z" transform="translate(366.848 -1213.042)" fill="#fff"/>
    <path id="Path_380" data-name="Path 380" d="M1445.222,1264.913a6.142,6.142,0,1,0-6.143-6.142A6.141,6.141,0,0,0,1445.222,1264.913Z" transform="translate(366.159 -1213.042)" fill="#fff"/>
    <path id="Path_381" data-name="Path 381" d="M1479.99,1264.913a6.142,6.142,0,1,0-6.143-6.142A6.142,6.142,0,0,0,1479.99,1264.913Z" transform="translate(365.47 -1213.042)" fill="#fff"/>
    <path id="Path_382" data-name="Path 382" d="M1514.757,1264.913a6.142,6.142,0,1,0-6.142-6.142A6.141,6.141,0,0,0,1514.757,1264.913Z" transform="translate(364.782 -1213.042)" fill="#fff"/>
    <path id="Path_383" data-name="Path 383" d="M1549.525,1264.913a6.142,6.142,0,1,0-6.143-6.142A6.142,6.142,0,0,0,1549.525,1264.913Z" transform="translate(364.093 -1213.042)" fill="#fff"/>
    <path id="Path_384" data-name="Path 384" d="M1340.918,1299.681a6.142,6.142,0,1,0-6.143-6.142A6.142,6.142,0,0,0,1340.918,1299.681Z" transform="translate(368.225 -1213.731)" fill="#fff"/>
    <path id="Path_385" data-name="Path 385" d="M1375.686,1299.681a6.142,6.142,0,1,0-6.143-6.142A6.142,6.142,0,0,0,1375.686,1299.681Z" transform="translate(367.536 -1213.731)" fill="#fff"/>
    <path id="Path_386" data-name="Path 386" d="M1410.453,1299.681a6.142,6.142,0,1,0-6.143-6.142A6.142,6.142,0,0,0,1410.453,1299.681Z" transform="translate(366.848 -1213.731)" fill="#fff"/>
    <path id="Path_387" data-name="Path 387" d="M1445.222,1299.681a6.142,6.142,0,1,0-6.143-6.142A6.142,6.142,0,0,0,1445.222,1299.681Z" transform="translate(366.159 -1213.731)" fill="#fff"/>
    <path id="Path_388" data-name="Path 388" d="M1479.99,1299.681a6.142,6.142,0,1,0-6.143-6.142A6.142,6.142,0,0,0,1479.99,1299.681Z" transform="translate(365.47 -1213.731)" fill="#fff"/>
    <path id="Path_389" data-name="Path 389" d="M1514.757,1299.681a6.142,6.142,0,1,0-6.142-6.142A6.142,6.142,0,0,0,1514.757,1299.681Z" transform="translate(364.782 -1213.731)" fill="#fff"/>
    <path id="Path_390" data-name="Path 390" d="M1549.525,1299.681a6.142,6.142,0,1,0-6.143-6.142A6.142,6.142,0,0,0,1549.525,1299.681Z" transform="translate(364.093 -1213.731)" fill="#fff"/>
    <path id="Path_391" data-name="Path 391" d="M1340.918,1334.449a6.142,6.142,0,1,0-6.143-6.142A6.142,6.142,0,0,0,1340.918,1334.449Z" transform="translate(368.225 -1214.419)" fill="#fff"/>
    <path id="Path_392" data-name="Path 392" d="M1375.686,1334.449a6.142,6.142,0,1,0-6.143-6.142A6.142,6.142,0,0,0,1375.686,1334.449Z" transform="translate(367.536 -1214.419)" fill="#fff"/>
    <path id="Path_393" data-name="Path 393" d="M1410.453,1334.449a6.142,6.142,0,1,0-6.143-6.142A6.142,6.142,0,0,0,1410.453,1334.449Z" transform="translate(366.848 -1214.419)" fill="#fff"/>
    <path id="Path_394" data-name="Path 394" d="M1445.222,1334.449a6.142,6.142,0,1,0-6.143-6.142A6.142,6.142,0,0,0,1445.222,1334.449Z" transform="translate(366.159 -1214.419)" fill="#fff"/>
    <path id="Path_395" data-name="Path 395" d="M1479.99,1334.449a6.142,6.142,0,1,0-6.143-6.142A6.142,6.142,0,0,0,1479.99,1334.449Z" transform="translate(365.47 -1214.419)" fill="#fff"/>
    <path id="Path_396" data-name="Path 396" d="M1514.757,1334.449a6.142,6.142,0,1,0-6.142-6.142A6.142,6.142,0,0,0,1514.757,1334.449Z" transform="translate(364.782 -1214.419)" fill="#fff"/>
    <path id="Path_397" data-name="Path 397" d="M1549.525,1334.449a6.142,6.142,0,1,0-6.143-6.142A6.142,6.142,0,0,0,1549.525,1334.449Z" transform="translate(364.093 -1214.419)" fill="#fff"/>
    <path id="Path_398" data-name="Path 398" d="M1340.918,1369.217a6.142,6.142,0,1,0-6.143-6.142A6.142,6.142,0,0,0,1340.918,1369.217Z" transform="translate(368.225 -1215.108)" fill="#fff"/>
    <path id="Path_399" data-name="Path 399" d="M1375.686,1369.217a6.142,6.142,0,1,0-6.143-6.142A6.142,6.142,0,0,0,1375.686,1369.217Z" transform="translate(367.536 -1215.108)" fill="#fff"/>
    <path id="Path_400" data-name="Path 400" d="M1410.453,1369.217a6.142,6.142,0,1,0-6.143-6.142A6.142,6.142,0,0,0,1410.453,1369.217Z" transform="translate(366.848 -1215.108)" fill="#fff"/>
    <path id="Path_401" data-name="Path 401" d="M1445.222,1369.217a6.142,6.142,0,1,0-6.143-6.142A6.142,6.142,0,0,0,1445.222,1369.217Z" transform="translate(366.159 -1215.108)" fill="#fff"/>
    <path id="Path_402" data-name="Path 402" d="M1479.99,1369.217a6.142,6.142,0,1,0-6.143-6.142A6.142,6.142,0,0,0,1479.99,1369.217Z" transform="translate(365.47 -1215.108)" fill="#fff"/>
    <path id="Path_403" data-name="Path 403" d="M1514.757,1369.217a6.142,6.142,0,1,0-6.142-6.142A6.142,6.142,0,0,0,1514.757,1369.217Z" transform="translate(364.782 -1215.108)" fill="#fff"/>
    <path id="Path_404" data-name="Path 404" d="M1549.525,1369.217a6.142,6.142,0,1,0-6.143-6.142A6.142,6.142,0,0,0,1549.525,1369.217Z" transform="translate(364.093 -1215.108)" fill="#fff"/>
    <path id="Path_405" data-name="Path 405" d="M1340.918,1403.985a6.142,6.142,0,1,0-6.143-6.142A6.142,6.142,0,0,0,1340.918,1403.985Z" transform="translate(368.225 -1215.797)" fill="#fff"/>
    <path id="Path_406" data-name="Path 406" d="M1375.686,1403.985a6.142,6.142,0,1,0-6.143-6.142A6.142,6.142,0,0,0,1375.686,1403.985Z" transform="translate(367.536 -1215.797)" fill="#fff"/>
    <path id="Path_407" data-name="Path 407" d="M1410.453,1403.985a6.142,6.142,0,1,0-6.143-6.142A6.142,6.142,0,0,0,1410.453,1403.985Z" transform="translate(366.848 -1215.797)" fill="#fff"/>
    <path id="Path_408" data-name="Path 408" d="M1445.222,1403.985a6.142,6.142,0,1,0-6.143-6.142A6.142,6.142,0,0,0,1445.222,1403.985Z" transform="translate(366.159 -1215.797)" fill="#fff"/>
    <path id="Path_409" data-name="Path 409" d="M1479.99,1403.985a6.142,6.142,0,1,0-6.143-6.142A6.142,6.142,0,0,0,1479.99,1403.985Z" transform="translate(365.47 -1215.797)" fill="#fff"/>
    <path id="Path_410" data-name="Path 410" d="M1514.757,1403.985a6.142,6.142,0,1,0-6.142-6.142A6.142,6.142,0,0,0,1514.757,1403.985Z" transform="translate(364.782 -1215.797)" fill="#fff"/>
    <path id="Path_411" data-name="Path 411" d="M1549.525,1403.985a6.142,6.142,0,1,0-6.143-6.142A6.143,6.143,0,0,0,1549.525,1403.985Z" transform="translate(364.093 -1215.797)" fill="#fff"/>
    <path id="Path_412" data-name="Path 412" d="M1340.918,1438.753a6.142,6.142,0,1,0-6.143-6.142A6.142,6.142,0,0,0,1340.918,1438.753Z" transform="translate(368.225 -1216.485)" fill="#fff"/>
    <path id="Path_413" data-name="Path 413" d="M1375.686,1438.753a6.142,6.142,0,1,0-6.143-6.142A6.142,6.142,0,0,0,1375.686,1438.753Z" transform="translate(367.536 -1216.485)" fill="#fff"/>
    <path id="Path_414" data-name="Path 414" d="M1410.453,1438.753a6.142,6.142,0,1,0-6.143-6.142A6.142,6.142,0,0,0,1410.453,1438.753Z" transform="translate(366.848 -1216.485)" fill="#fff"/>
    <path id="Path_415" data-name="Path 415" d="M1445.222,1438.753a6.142,6.142,0,1,0-6.143-6.142A6.142,6.142,0,0,0,1445.222,1438.753Z" transform="translate(366.159 -1216.485)" fill="#fff"/>
    <path id="Path_416" data-name="Path 416" d="M1479.99,1438.753a6.142,6.142,0,1,0-6.143-6.142A6.142,6.142,0,0,0,1479.99,1438.753Z" transform="translate(365.47 -1216.485)" fill="#fff"/>
    <path id="Path_417" data-name="Path 417" d="M1514.757,1438.753a6.142,6.142,0,1,0-6.142-6.142A6.142,6.142,0,0,0,1514.757,1438.753Z" transform="translate(364.782 -1216.485)" fill="#fff"/>
    <path id="Path_418" data-name="Path 418" d="M1549.525,1438.753a6.142,6.142,0,1,0-6.143-6.142A6.142,6.142,0,0,0,1549.525,1438.753Z" transform="translate(364.093 -1216.485)" fill="#fff"/>
    <path id="Path_419" data-name="Path 419" d="M1340.918,1473.521a6.142,6.142,0,1,0-6.143-6.142A6.142,6.142,0,0,0,1340.918,1473.521Z" transform="translate(368.225 -1217.174)" fill="#fff"/>
    <path id="Path_420" data-name="Path 420" d="M1375.686,1473.521a6.142,6.142,0,1,0-6.143-6.142A6.142,6.142,0,0,0,1375.686,1473.521Z" transform="translate(367.536 -1217.174)" fill="#fff"/>
    <path id="Path_421" data-name="Path 421" d="M1410.453,1473.521a6.142,6.142,0,1,0-6.143-6.142A6.142,6.142,0,0,0,1410.453,1473.521Z" transform="translate(366.848 -1217.174)" fill="#fff"/>
    <path id="Path_422" data-name="Path 422" d="M1445.222,1473.521a6.142,6.142,0,1,0-6.143-6.142A6.142,6.142,0,0,0,1445.222,1473.521Z" transform="translate(366.159 -1217.174)" fill="#fff"/>
    <path id="Path_423" data-name="Path 423" d="M1479.99,1473.521a6.142,6.142,0,1,0-6.143-6.142A6.142,6.142,0,0,0,1479.99,1473.521Z" transform="translate(365.47 -1217.174)" fill="#fff"/>
    <path id="Path_424" data-name="Path 424" d="M1514.757,1473.521a6.142,6.142,0,1,0-6.142-6.142A6.142,6.142,0,0,0,1514.757,1473.521Z" transform="translate(364.782 -1217.174)" fill="#fff"/>
    <path id="Path_425" data-name="Path 425" d="M1549.525,1473.521a6.142,6.142,0,1,0-6.143-6.142A6.142,6.142,0,0,0,1549.525,1473.521Z" transform="translate(364.093 -1217.174)" fill="#fff"/>
    <path id="Path_426" data-name="Path 426" d="M1340.918,1508.289a6.142,6.142,0,1,0-6.143-6.142A6.142,6.142,0,0,0,1340.918,1508.289Z" transform="translate(368.225 -1217.863)" fill="#fff"/>
    <path id="Path_427" data-name="Path 427" d="M1375.686,1508.289a6.142,6.142,0,1,0-6.143-6.142A6.142,6.142,0,0,0,1375.686,1508.289Z" transform="translate(367.536 -1217.863)" fill="#fff"/>
    <path id="Path_428" data-name="Path 428" d="M1410.453,1508.289a6.142,6.142,0,1,0-6.143-6.142A6.142,6.142,0,0,0,1410.453,1508.289Z" transform="translate(366.848 -1217.863)" fill="#fff"/>
    <path id="Path_429" data-name="Path 429" d="M1445.222,1508.289a6.142,6.142,0,1,0-6.143-6.142A6.142,6.142,0,0,0,1445.222,1508.289Z" transform="translate(366.159 -1217.863)" fill="#fff"/>
    <path id="Path_430" data-name="Path 430" d="M1479.99,1508.289a6.142,6.142,0,1,0-6.143-6.142A6.142,6.142,0,0,0,1479.99,1508.289Z" transform="translate(365.47 -1217.863)" fill="#fff"/>
    <path id="Path_431" data-name="Path 431" d="M1514.757,1508.289a6.142,6.142,0,1,0-6.142-6.142A6.142,6.142,0,0,0,1514.757,1508.289Z" transform="translate(364.782 -1217.863)" fill="#fff"/>
    <path id="Path_432" data-name="Path 432" d="M1549.525,1508.289a6.142,6.142,0,1,0-6.143-6.142A6.142,6.142,0,0,0,1549.525,1508.289Z" transform="translate(364.093 -1217.863)" fill="#fff"/>
    <path id="Path_433" data-name="Path 433" d="M1340.918,1543.057a6.142,6.142,0,1,0-6.143-6.142A6.142,6.142,0,0,0,1340.918,1543.057Z" transform="translate(368.225 -1218.551)" fill="#fff"/>
    <path id="Path_434" data-name="Path 434" d="M1375.686,1543.057a6.142,6.142,0,1,0-6.143-6.142A6.142,6.142,0,0,0,1375.686,1543.057Z" transform="translate(367.536 -1218.551)" fill="#fff"/>
    <path id="Path_435" data-name="Path 435" d="M1410.453,1543.057a6.142,6.142,0,1,0-6.143-6.142A6.142,6.142,0,0,0,1410.453,1543.057Z" transform="translate(366.848 -1218.551)" fill="#fff"/>
    <path id="Path_436" data-name="Path 436" d="M1445.222,1543.057a6.142,6.142,0,1,0-6.143-6.142A6.142,6.142,0,0,0,1445.222,1543.057Z" transform="translate(366.159 -1218.551)" fill="#fff"/>
    <path id="Path_437" data-name="Path 437" d="M1479.99,1543.057a6.142,6.142,0,1,0-6.143-6.142A6.142,6.142,0,0,0,1479.99,1543.057Z" transform="translate(365.47 -1218.551)" fill="#fff"/>
    <path id="Path_438" data-name="Path 438" d="M1514.757,1543.057a6.142,6.142,0,1,0-6.142-6.142A6.142,6.142,0,0,0,1514.757,1543.057Z" transform="translate(364.782 -1218.551)" fill="#fff"/>
    <path id="Path_439" data-name="Path 439" d="M1549.525,1543.057a6.142,6.142,0,1,0-6.143-6.142A6.142,6.142,0,0,0,1549.525,1543.057Z" transform="translate(364.093 -1218.551)" fill="#fff"/>
    <path id="Path_440" data-name="Path 440" d="M1340.918,1577.825a6.142,6.142,0,1,0-6.143-6.143A6.142,6.142,0,0,0,1340.918,1577.825Z" transform="translate(368.225 -1219.24)" fill="#fff"/>
    <path id="Path_441" data-name="Path 441" d="M1375.686,1577.825a6.142,6.142,0,1,0-6.143-6.143A6.142,6.142,0,0,0,1375.686,1577.825Z" transform="translate(367.536 -1219.24)" fill="#fff"/>
    <path id="Path_442" data-name="Path 442" d="M1410.453,1577.825a6.142,6.142,0,1,0-6.143-6.143A6.142,6.142,0,0,0,1410.453,1577.825Z" transform="translate(366.848 -1219.24)" fill="#fff"/>
    <path id="Path_443" data-name="Path 443" d="M1445.222,1577.825a6.142,6.142,0,1,0-6.143-6.143A6.142,6.142,0,0,0,1445.222,1577.825Z" transform="translate(366.159 -1219.24)" fill="#fff"/>
    <path id="Path_444" data-name="Path 444" d="M1479.99,1577.825a6.142,6.142,0,1,0-6.143-6.143A6.142,6.142,0,0,0,1479.99,1577.825Z" transform="translate(365.47 -1219.24)" fill="#fff"/>
    <path id="Path_445" data-name="Path 445" d="M1514.757,1577.825a6.142,6.142,0,1,0-6.142-6.143A6.142,6.142,0,0,0,1514.757,1577.825Z" transform="translate(364.782 -1219.24)" fill="#fff"/>
    <path id="Path_446" data-name="Path 446" d="M1549.525,1577.825a6.142,6.142,0,1,0-6.143-6.143A6.142,6.142,0,0,0,1549.525,1577.825Z" transform="translate(364.093 -1219.24)" fill="#fff"/>
    <path id="Path_447" data-name="Path 447" d="M1340.918,1612.592a6.143,6.143,0,1,0-6.143-6.143A6.142,6.142,0,0,0,1340.918,1612.592Z" transform="translate(368.225 -1219.929)" fill="#fff"/>
    <path id="Path_448" data-name="Path 448" d="M1375.686,1612.592a6.143,6.143,0,1,0-6.143-6.143A6.142,6.142,0,0,0,1375.686,1612.592Z" transform="translate(367.536 -1219.929)" fill="#fff"/>
    <path id="Path_449" data-name="Path 449" d="M1410.453,1612.592a6.143,6.143,0,1,0-6.143-6.143A6.142,6.142,0,0,0,1410.453,1612.592Z" transform="translate(366.848 -1219.929)" fill="#fff"/>
    <path id="Path_450" data-name="Path 450" d="M1445.222,1612.592a6.143,6.143,0,1,0-6.143-6.143A6.142,6.142,0,0,0,1445.222,1612.592Z" transform="translate(366.159 -1219.929)" fill="#fff"/>
    <path id="Path_451" data-name="Path 451" d="M1479.99,1612.592a6.143,6.143,0,1,0-6.143-6.143A6.142,6.142,0,0,0,1479.99,1612.592Z" transform="translate(365.47 -1219.929)" fill="#fff"/>
    <path id="Path_452" data-name="Path 452" d="M1514.757,1612.592a6.143,6.143,0,1,0-6.142-6.143A6.142,6.142,0,0,0,1514.757,1612.592Z" transform="translate(364.782 -1219.929)" fill="#fff"/>
    <path id="Path_453" data-name="Path 453" d="M1549.525,1612.592a6.143,6.143,0,1,0-6.143-6.143A6.142,6.142,0,0,0,1549.525,1612.592Z" transform="translate(364.093 -1219.929)" fill="#fff"/>
    <path id="Path_454" data-name="Path 454" d="M1340.918,1647.36a6.143,6.143,0,1,0-6.143-6.143A6.142,6.142,0,0,0,1340.918,1647.36Z" transform="translate(368.225 -1220.617)" fill="#fff"/>
    <path id="Path_455" data-name="Path 455" d="M1375.686,1647.36a6.143,6.143,0,1,0-6.143-6.143A6.142,6.142,0,0,0,1375.686,1647.36Z" transform="translate(367.536 -1220.617)" fill="#fff"/>
    <path id="Path_456" data-name="Path 456" d="M1410.453,1647.36a6.143,6.143,0,1,0-6.143-6.143A6.142,6.142,0,0,0,1410.453,1647.36Z" transform="translate(366.848 -1220.617)" fill="#fff"/>
    <path id="Path_457" data-name="Path 457" d="M1445.222,1647.36a6.143,6.143,0,1,0-6.143-6.143A6.142,6.142,0,0,0,1445.222,1647.36Z" transform="translate(366.159 -1220.617)" fill="#fff"/>
    <path id="Path_458" data-name="Path 458" d="M1479.99,1647.36a6.143,6.143,0,1,0-6.143-6.143A6.142,6.142,0,0,0,1479.99,1647.36Z" transform="translate(365.47 -1220.617)" fill="#fff"/>
    <path id="Path_459" data-name="Path 459" d="M1514.757,1647.36a6.143,6.143,0,1,0-6.142-6.143A6.142,6.142,0,0,0,1514.757,1647.36Z" transform="translate(364.782 -1220.617)" fill="#fff"/>
    <path id="Path_460" data-name="Path 460" d="M1549.525,1647.36a6.143,6.143,0,1,0-6.143-6.143A6.142,6.142,0,0,0,1549.525,1647.36Z" transform="translate(364.093 -1220.617)" fill="#fff"/>
    <path id="Path_461" data-name="Path 461" d="M1340.918,1682.129a6.143,6.143,0,1,0-6.143-6.143A6.143,6.143,0,0,0,1340.918,1682.129Z" transform="translate(368.225 -1221.306)" fill="#fff"/>
    <path id="Path_462" data-name="Path 462" d="M1375.686,1682.129a6.143,6.143,0,1,0-6.143-6.143A6.143,6.143,0,0,0,1375.686,1682.129Z" transform="translate(367.536 -1221.306)" fill="#fff"/>
    <path id="Path_463" data-name="Path 463" d="M1410.453,1682.129a6.143,6.143,0,1,0-6.143-6.143A6.142,6.142,0,0,0,1410.453,1682.129Z" transform="translate(366.848 -1221.306)" fill="#fff"/>
    <path id="Path_464" data-name="Path 464" d="M1445.222,1682.129a6.143,6.143,0,1,0-6.143-6.143A6.142,6.142,0,0,0,1445.222,1682.129Z" transform="translate(366.159 -1221.306)" fill="#fff"/>
    <path id="Path_465" data-name="Path 465" d="M1479.99,1682.129a6.143,6.143,0,1,0-6.143-6.143A6.143,6.143,0,0,0,1479.99,1682.129Z" transform="translate(365.47 -1221.306)" fill="#fff"/>
    <path id="Path_466" data-name="Path 466" d="M1514.757,1682.129a6.143,6.143,0,1,0-6.142-6.143A6.142,6.142,0,0,0,1514.757,1682.129Z" transform="translate(364.782 -1221.306)" fill="#fff"/>
    <path id="Path_467" data-name="Path 467" d="M1549.525,1682.129a6.143,6.143,0,1,0-6.143-6.143A6.143,6.143,0,0,0,1549.525,1682.129Z" transform="translate(364.093 -1221.306)" fill="#fff"/>
  </g>
</svg>
