<svg xmlns="http://www.w3.org/2000/svg" width="216.761" height="455.316" viewBox="0 0 216.761 455.316">
  <g id="Group_11" data-name="Group 11" transform="translate(0 -606)" opacity="0.2">
    <path id="Path_237" data-name="Path 237" d="M1340.918,569.554a6.142,6.142,0,1,0-6.143-6.142A6.141,6.141,0,0,0,1340.918,569.554Z" transform="translate(-1334.775 48.731)" fill="#fff"/>
    <path id="Path_238" data-name="Path 238" d="M1375.686,569.554a6.142,6.142,0,1,0-6.143-6.142A6.142,6.142,0,0,0,1375.686,569.554Z" transform="translate(-1335.464 48.731)" fill="#fff"/>
    <path id="Path_239" data-name="Path 239" d="M1410.453,569.554a6.142,6.142,0,1,0-6.143-6.142A6.141,6.141,0,0,0,1410.453,569.554Z" transform="translate(-1336.152 48.731)" fill="#fff"/>
    <path id="Path_240" data-name="Path 240" d="M1445.222,569.554a6.142,6.142,0,1,0-6.143-6.142A6.141,6.141,0,0,0,1445.222,569.554Z" transform="translate(-1336.841 48.731)" fill="#fff"/>
    <path id="Path_241" data-name="Path 241" d="M1479.99,569.554a6.142,6.142,0,1,0-6.143-6.142A6.141,6.141,0,0,0,1479.99,569.554Z" transform="translate(-1337.53 48.731)" fill="#fff"/>
    <path id="Path_242" data-name="Path 242" d="M1514.757,569.554a6.142,6.142,0,1,0-6.142-6.142A6.141,6.141,0,0,0,1514.757,569.554Z" transform="translate(-1338.218 48.731)" fill="#fff"/>
    <path id="Path_243" data-name="Path 243" d="M1549.525,569.554a6.142,6.142,0,1,0-6.143-6.142A6.142,6.142,0,0,0,1549.525,569.554Z" transform="translate(-1338.907 48.731)" fill="#fff"/>
    <path id="Path_244" data-name="Path 244" d="M1340.918,604.322a6.142,6.142,0,1,0-6.143-6.142A6.141,6.141,0,0,0,1340.918,604.322Z" transform="translate(-1334.775 48.042)" fill="#fff"/>
    <path id="Path_245" data-name="Path 245" d="M1375.686,604.322a6.142,6.142,0,1,0-6.143-6.142A6.142,6.142,0,0,0,1375.686,604.322Z" transform="translate(-1335.464 48.042)" fill="#fff"/>
    <path id="Path_246" data-name="Path 246" d="M1410.453,604.322a6.142,6.142,0,1,0-6.143-6.142A6.141,6.141,0,0,0,1410.453,604.322Z" transform="translate(-1336.152 48.042)" fill="#fff"/>
    <path id="Path_247" data-name="Path 247" d="M1445.222,604.322a6.142,6.142,0,1,0-6.143-6.142A6.141,6.141,0,0,0,1445.222,604.322Z" transform="translate(-1336.841 48.042)" fill="#fff"/>
    <path id="Path_248" data-name="Path 248" d="M1479.99,604.322a6.142,6.142,0,1,0-6.143-6.142A6.141,6.141,0,0,0,1479.99,604.322Z" transform="translate(-1337.53 48.042)" fill="#fff"/>
    <path id="Path_249" data-name="Path 249" d="M1514.757,604.322a6.142,6.142,0,1,0-6.142-6.142A6.141,6.141,0,0,0,1514.757,604.322Z" transform="translate(-1338.218 48.042)" fill="#fff"/>
    <path id="Path_250" data-name="Path 250" d="M1549.525,604.322a6.142,6.142,0,1,0-6.143-6.142A6.142,6.142,0,0,0,1549.525,604.322Z" transform="translate(-1338.907 48.042)" fill="#fff"/>
    <path id="Path_251" data-name="Path 251" d="M1340.918,639.09a6.142,6.142,0,1,0-6.143-6.142A6.141,6.141,0,0,0,1340.918,639.09Z" transform="translate(-1334.775 47.354)" fill="#fff"/>
    <path id="Path_252" data-name="Path 252" d="M1375.686,639.09a6.142,6.142,0,1,0-6.143-6.142A6.142,6.142,0,0,0,1375.686,639.09Z" transform="translate(-1335.464 47.354)" fill="#fff"/>
    <path id="Path_253" data-name="Path 253" d="M1410.453,639.09a6.142,6.142,0,1,0-6.143-6.142A6.141,6.141,0,0,0,1410.453,639.09Z" transform="translate(-1336.152 47.354)" fill="#fff"/>
    <path id="Path_254" data-name="Path 254" d="M1445.222,639.09a6.142,6.142,0,1,0-6.143-6.142A6.141,6.141,0,0,0,1445.222,639.09Z" transform="translate(-1336.841 47.354)" fill="#fff"/>
    <path id="Path_255" data-name="Path 255" d="M1479.99,639.09a6.142,6.142,0,1,0-6.143-6.142A6.142,6.142,0,0,0,1479.99,639.09Z" transform="translate(-1337.53 47.354)" fill="#fff"/>
    <path id="Path_256" data-name="Path 256" d="M1514.757,639.09a6.142,6.142,0,1,0-6.142-6.142A6.141,6.141,0,0,0,1514.757,639.09Z" transform="translate(-1338.218 47.354)" fill="#fff"/>
    <path id="Path_257" data-name="Path 257" d="M1549.525,639.09a6.142,6.142,0,1,0-6.143-6.142A6.142,6.142,0,0,0,1549.525,639.09Z" transform="translate(-1338.907 47.354)" fill="#fff"/>
    <path id="Path_258" data-name="Path 258" d="M1340.918,673.858a6.142,6.142,0,1,0-6.143-6.142A6.142,6.142,0,0,0,1340.918,673.858Z" transform="translate(-1334.775 46.665)" fill="#fff"/>
    <path id="Path_259" data-name="Path 259" d="M1375.686,673.858a6.142,6.142,0,1,0-6.143-6.142A6.142,6.142,0,0,0,1375.686,673.858Z" transform="translate(-1335.464 46.665)" fill="#fff"/>
    <path id="Path_260" data-name="Path 260" d="M1410.453,673.858a6.142,6.142,0,1,0-6.143-6.142A6.142,6.142,0,0,0,1410.453,673.858Z" transform="translate(-1336.152 46.665)" fill="#fff"/>
    <path id="Path_261" data-name="Path 261" d="M1445.222,673.858a6.142,6.142,0,1,0-6.143-6.142A6.142,6.142,0,0,0,1445.222,673.858Z" transform="translate(-1336.841 46.665)" fill="#fff"/>
    <path id="Path_262" data-name="Path 262" d="M1479.99,673.858a6.142,6.142,0,1,0-6.143-6.142A6.142,6.142,0,0,0,1479.99,673.858Z" transform="translate(-1337.53 46.665)" fill="#fff"/>
    <path id="Path_263" data-name="Path 263" d="M1514.757,673.858a6.142,6.142,0,1,0-6.142-6.142A6.142,6.142,0,0,0,1514.757,673.858Z" transform="translate(-1338.218 46.665)" fill="#fff"/>
    <path id="Path_264" data-name="Path 264" d="M1549.525,673.858a6.142,6.142,0,1,0-6.143-6.142A6.142,6.142,0,0,0,1549.525,673.858Z" transform="translate(-1338.907 46.665)" fill="#fff"/>
    <path id="Path_265" data-name="Path 265" d="M1340.918,708.626a6.142,6.142,0,1,0-6.143-6.142A6.142,6.142,0,0,0,1340.918,708.626Z" transform="translate(-1334.775 45.976)" fill="#fff"/>
    <path id="Path_266" data-name="Path 266" d="M1375.686,708.626a6.142,6.142,0,1,0-6.143-6.142A6.142,6.142,0,0,0,1375.686,708.626Z" transform="translate(-1335.464 45.976)" fill="#fff"/>
    <path id="Path_267" data-name="Path 267" d="M1410.453,708.626a6.142,6.142,0,1,0-6.143-6.142A6.142,6.142,0,0,0,1410.453,708.626Z" transform="translate(-1336.152 45.976)" fill="#fff"/>
    <path id="Path_268" data-name="Path 268" d="M1445.222,708.626a6.142,6.142,0,1,0-6.143-6.142A6.142,6.142,0,0,0,1445.222,708.626Z" transform="translate(-1336.841 45.976)" fill="#fff"/>
    <path id="Path_269" data-name="Path 269" d="M1479.99,708.626a6.142,6.142,0,1,0-6.143-6.142A6.142,6.142,0,0,0,1479.99,708.626Z" transform="translate(-1337.53 45.976)" fill="#fff"/>
    <path id="Path_270" data-name="Path 270" d="M1514.757,708.626a6.142,6.142,0,1,0-6.142-6.142A6.142,6.142,0,0,0,1514.757,708.626Z" transform="translate(-1338.218 45.976)" fill="#fff"/>
    <path id="Path_271" data-name="Path 271" d="M1549.525,708.626a6.142,6.142,0,1,0-6.143-6.142A6.142,6.142,0,0,0,1549.525,708.626Z" transform="translate(-1338.907 45.976)" fill="#fff"/>
    <path id="Path_272" data-name="Path 272" d="M1340.918,743.394a6.142,6.142,0,1,0-6.143-6.142A6.142,6.142,0,0,0,1340.918,743.394Z" transform="translate(-1334.775 45.288)" fill="#fff"/>
    <path id="Path_273" data-name="Path 273" d="M1375.686,743.394a6.142,6.142,0,1,0-6.143-6.142A6.142,6.142,0,0,0,1375.686,743.394Z" transform="translate(-1335.464 45.288)" fill="#fff"/>
    <path id="Path_274" data-name="Path 274" d="M1410.453,743.394a6.142,6.142,0,1,0-6.143-6.142A6.142,6.142,0,0,0,1410.453,743.394Z" transform="translate(-1336.152 45.288)" fill="#fff"/>
    <path id="Path_275" data-name="Path 275" d="M1445.222,743.394a6.142,6.142,0,1,0-6.143-6.142A6.142,6.142,0,0,0,1445.222,743.394Z" transform="translate(-1336.841 45.288)" fill="#fff"/>
    <path id="Path_276" data-name="Path 276" d="M1479.99,743.394a6.142,6.142,0,1,0-6.143-6.142A6.142,6.142,0,0,0,1479.99,743.394Z" transform="translate(-1337.53 45.288)" fill="#fff"/>
    <path id="Path_277" data-name="Path 277" d="M1514.757,743.394a6.142,6.142,0,1,0-6.142-6.142A6.142,6.142,0,0,0,1514.757,743.394Z" transform="translate(-1338.218 45.288)" fill="#fff"/>
    <path id="Path_278" data-name="Path 278" d="M1549.525,743.394a6.142,6.142,0,1,0-6.143-6.142A6.142,6.142,0,0,0,1549.525,743.394Z" transform="translate(-1338.907 45.288)" fill="#fff"/>
    <path id="Path_279" data-name="Path 279" d="M1340.918,778.162a6.142,6.142,0,1,0-6.143-6.142A6.142,6.142,0,0,0,1340.918,778.162Z" transform="translate(-1334.775 44.599)" fill="#fff"/>
    <path id="Path_280" data-name="Path 280" d="M1375.686,778.162a6.142,6.142,0,1,0-6.143-6.142A6.142,6.142,0,0,0,1375.686,778.162Z" transform="translate(-1335.464 44.599)" fill="#fff"/>
    <path id="Path_281" data-name="Path 281" d="M1410.453,778.162a6.142,6.142,0,1,0-6.143-6.142A6.142,6.142,0,0,0,1410.453,778.162Z" transform="translate(-1336.152 44.599)" fill="#fff"/>
    <path id="Path_282" data-name="Path 282" d="M1445.222,778.162a6.142,6.142,0,1,0-6.143-6.142A6.142,6.142,0,0,0,1445.222,778.162Z" transform="translate(-1336.841 44.599)" fill="#fff"/>
    <path id="Path_283" data-name="Path 283" d="M1479.99,778.162a6.142,6.142,0,1,0-6.143-6.142A6.142,6.142,0,0,0,1479.99,778.162Z" transform="translate(-1337.53 44.599)" fill="#fff"/>
    <path id="Path_284" data-name="Path 284" d="M1514.757,778.162a6.142,6.142,0,1,0-6.142-6.142A6.142,6.142,0,0,0,1514.757,778.162Z" transform="translate(-1338.218 44.599)" fill="#fff"/>
    <path id="Path_285" data-name="Path 285" d="M1549.525,778.162a6.142,6.142,0,1,0-6.143-6.142A6.142,6.142,0,0,0,1549.525,778.162Z" transform="translate(-1338.907 44.599)" fill="#fff"/>
    <path id="Path_286" data-name="Path 286" d="M1340.918,812.93a6.142,6.142,0,1,0-6.143-6.142A6.142,6.142,0,0,0,1340.918,812.93Z" transform="translate(-1334.775 43.91)" fill="#fff"/>
    <path id="Path_287" data-name="Path 287" d="M1375.686,812.93a6.142,6.142,0,1,0-6.143-6.142A6.142,6.142,0,0,0,1375.686,812.93Z" transform="translate(-1335.464 43.91)" fill="#fff"/>
    <path id="Path_288" data-name="Path 288" d="M1410.453,812.93a6.142,6.142,0,1,0-6.143-6.142A6.142,6.142,0,0,0,1410.453,812.93Z" transform="translate(-1336.152 43.91)" fill="#fff"/>
    <path id="Path_289" data-name="Path 289" d="M1445.222,812.93a6.142,6.142,0,1,0-6.143-6.142A6.142,6.142,0,0,0,1445.222,812.93Z" transform="translate(-1336.841 43.91)" fill="#fff"/>
    <path id="Path_290" data-name="Path 290" d="M1479.99,812.93a6.142,6.142,0,1,0-6.143-6.142A6.142,6.142,0,0,0,1479.99,812.93Z" transform="translate(-1337.53 43.91)" fill="#fff"/>
    <path id="Path_291" data-name="Path 291" d="M1514.757,812.93a6.142,6.142,0,1,0-6.142-6.142A6.142,6.142,0,0,0,1514.757,812.93Z" transform="translate(-1338.218 43.91)" fill="#fff"/>
    <path id="Path_292" data-name="Path 292" d="M1549.525,812.93a6.142,6.142,0,1,0-6.143-6.142A6.142,6.142,0,0,0,1549.525,812.93Z" transform="translate(-1338.907 43.91)" fill="#fff"/>
    <path id="Path_293" data-name="Path 293" d="M1340.918,847.7a6.142,6.142,0,1,0-6.143-6.142A6.142,6.142,0,0,0,1340.918,847.7Z" transform="translate(-1334.775 43.222)" fill="#fff"/>
    <path id="Path_294" data-name="Path 294" d="M1375.686,847.7a6.142,6.142,0,1,0-6.143-6.142A6.142,6.142,0,0,0,1375.686,847.7Z" transform="translate(-1335.464 43.222)" fill="#fff"/>
    <path id="Path_295" data-name="Path 295" d="M1410.453,847.7a6.142,6.142,0,1,0-6.143-6.142A6.142,6.142,0,0,0,1410.453,847.7Z" transform="translate(-1336.152 43.222)" fill="#fff"/>
    <path id="Path_296" data-name="Path 296" d="M1445.222,847.7a6.142,6.142,0,1,0-6.143-6.142A6.142,6.142,0,0,0,1445.222,847.7Z" transform="translate(-1336.841 43.222)" fill="#fff"/>
    <path id="Path_297" data-name="Path 297" d="M1479.99,847.7a6.142,6.142,0,1,0-6.143-6.142A6.142,6.142,0,0,0,1479.99,847.7Z" transform="translate(-1337.53 43.222)" fill="#fff"/>
    <path id="Path_298" data-name="Path 298" d="M1514.757,847.7a6.142,6.142,0,1,0-6.142-6.142A6.142,6.142,0,0,0,1514.757,847.7Z" transform="translate(-1338.218 43.222)" fill="#fff"/>
    <path id="Path_299" data-name="Path 299" d="M1549.525,847.7a6.142,6.142,0,1,0-6.143-6.142A6.142,6.142,0,0,0,1549.525,847.7Z" transform="translate(-1338.907 43.222)" fill="#fff"/>
    <path id="Path_300" data-name="Path 300" d="M1340.918,882.466a6.142,6.142,0,1,0-6.143-6.142A6.142,6.142,0,0,0,1340.918,882.466Z" transform="translate(-1334.775 42.533)" fill="#fff"/>
    <path id="Path_301" data-name="Path 301" d="M1375.686,882.466a6.142,6.142,0,1,0-6.143-6.142A6.142,6.142,0,0,0,1375.686,882.466Z" transform="translate(-1335.464 42.533)" fill="#fff"/>
    <path id="Path_302" data-name="Path 302" d="M1410.453,882.466a6.142,6.142,0,1,0-6.143-6.142A6.142,6.142,0,0,0,1410.453,882.466Z" transform="translate(-1336.152 42.533)" fill="#fff"/>
    <path id="Path_303" data-name="Path 303" d="M1445.222,882.466a6.142,6.142,0,1,0-6.143-6.142A6.142,6.142,0,0,0,1445.222,882.466Z" transform="translate(-1336.841 42.533)" fill="#fff"/>
    <path id="Path_304" data-name="Path 304" d="M1479.99,882.466a6.142,6.142,0,1,0-6.143-6.142A6.142,6.142,0,0,0,1479.99,882.466Z" transform="translate(-1337.53 42.533)" fill="#fff"/>
    <path id="Path_305" data-name="Path 305" d="M1514.757,882.466a6.142,6.142,0,1,0-6.142-6.142A6.142,6.142,0,0,0,1514.757,882.466Z" transform="translate(-1338.218 42.533)" fill="#fff"/>
    <path id="Path_306" data-name="Path 306" d="M1549.525,882.466a6.142,6.142,0,1,0-6.143-6.142A6.142,6.142,0,0,0,1549.525,882.466Z" transform="translate(-1338.907 42.533)" fill="#fff"/>
    <path id="Path_307" data-name="Path 307" d="M1340.918,917.234a6.142,6.142,0,1,0-6.143-6.142A6.142,6.142,0,0,0,1340.918,917.234Z" transform="translate(-1334.775 41.844)" fill="#fff"/>
    <path id="Path_308" data-name="Path 308" d="M1375.686,917.234a6.142,6.142,0,1,0-6.143-6.142A6.142,6.142,0,0,0,1375.686,917.234Z" transform="translate(-1335.464 41.844)" fill="#fff"/>
    <path id="Path_309" data-name="Path 309" d="M1410.453,917.234a6.142,6.142,0,1,0-6.143-6.142A6.142,6.142,0,0,0,1410.453,917.234Z" transform="translate(-1336.152 41.844)" fill="#fff"/>
    <path id="Path_310" data-name="Path 310" d="M1445.222,917.234a6.142,6.142,0,1,0-6.143-6.142A6.142,6.142,0,0,0,1445.222,917.234Z" transform="translate(-1336.841 41.844)" fill="#fff"/>
    <path id="Path_311" data-name="Path 311" d="M1479.99,917.234a6.142,6.142,0,1,0-6.143-6.142A6.142,6.142,0,0,0,1479.99,917.234Z" transform="translate(-1337.53 41.844)" fill="#fff"/>
    <path id="Path_312" data-name="Path 312" d="M1514.757,917.234a6.142,6.142,0,1,0-6.142-6.142A6.142,6.142,0,0,0,1514.757,917.234Z" transform="translate(-1338.218 41.844)" fill="#fff"/>
    <path id="Path_313" data-name="Path 313" d="M1549.525,917.234a6.142,6.142,0,1,0-6.143-6.142A6.142,6.142,0,0,0,1549.525,917.234Z" transform="translate(-1338.907 41.844)" fill="#fff"/>
    <path id="Path_314" data-name="Path 314" d="M1340.918,952a6.142,6.142,0,1,0-6.143-6.143A6.142,6.142,0,0,0,1340.918,952Z" transform="translate(-1334.775 41.156)" fill="#fff"/>
    <path id="Path_315" data-name="Path 315" d="M1375.686,952a6.142,6.142,0,1,0-6.143-6.143A6.143,6.143,0,0,0,1375.686,952Z" transform="translate(-1335.464 41.156)" fill="#fff"/>
    <path id="Path_316" data-name="Path 316" d="M1410.453,952a6.142,6.142,0,1,0-6.143-6.143A6.142,6.142,0,0,0,1410.453,952Z" transform="translate(-1336.152 41.156)" fill="#fff"/>
    <path id="Path_317" data-name="Path 317" d="M1445.222,952a6.142,6.142,0,1,0-6.143-6.143A6.142,6.142,0,0,0,1445.222,952Z" transform="translate(-1336.841 41.156)" fill="#fff"/>
    <path id="Path_318" data-name="Path 318" d="M1479.99,952a6.142,6.142,0,1,0-6.143-6.143A6.142,6.142,0,0,0,1479.99,952Z" transform="translate(-1337.53 41.156)" fill="#fff"/>
    <path id="Path_319" data-name="Path 319" d="M1514.757,952a6.142,6.142,0,1,0-6.142-6.143A6.142,6.142,0,0,0,1514.757,952Z" transform="translate(-1338.218 41.156)" fill="#fff"/>
    <path id="Path_320" data-name="Path 320" d="M1549.525,952a6.142,6.142,0,1,0-6.143-6.143A6.143,6.143,0,0,0,1549.525,952Z" transform="translate(-1338.907 41.156)" fill="#fff"/>
    <path id="Path_321" data-name="Path 321" d="M1340.918,986.77a6.143,6.143,0,1,0-6.143-6.143A6.142,6.142,0,0,0,1340.918,986.77Z" transform="translate(-1334.775 40.467)" fill="#fff"/>
    <path id="Path_322" data-name="Path 322" d="M1375.686,986.77a6.143,6.143,0,1,0-6.143-6.143A6.142,6.142,0,0,0,1375.686,986.77Z" transform="translate(-1335.464 40.467)" fill="#fff"/>
    <path id="Path_323" data-name="Path 323" d="M1410.453,986.77a6.143,6.143,0,1,0-6.143-6.143A6.142,6.142,0,0,0,1410.453,986.77Z" transform="translate(-1336.152 40.467)" fill="#fff"/>
    <path id="Path_324" data-name="Path 324" d="M1445.222,986.77a6.143,6.143,0,1,0-6.143-6.143A6.142,6.142,0,0,0,1445.222,986.77Z" transform="translate(-1336.841 40.467)" fill="#fff"/>
    <path id="Path_325" data-name="Path 325" d="M1479.99,986.77a6.143,6.143,0,1,0-6.143-6.143A6.142,6.142,0,0,0,1479.99,986.77Z" transform="translate(-1337.53 40.467)" fill="#fff"/>
    <path id="Path_326" data-name="Path 326" d="M1514.757,986.77a6.143,6.143,0,1,0-6.142-6.143A6.142,6.142,0,0,0,1514.757,986.77Z" transform="translate(-1338.218 40.467)" fill="#fff"/>
    <path id="Path_327" data-name="Path 327" d="M1549.525,986.77a6.143,6.143,0,1,0-6.143-6.143A6.142,6.142,0,0,0,1549.525,986.77Z" transform="translate(-1338.907 40.467)" fill="#fff"/>
    <path id="Path_328" data-name="Path 328" d="M1340.918,1021.538a6.143,6.143,0,1,0-6.143-6.143A6.142,6.142,0,0,0,1340.918,1021.538Z" transform="translate(-1334.775 39.779)" fill="#fff"/>
    <path id="Path_329" data-name="Path 329" d="M1375.686,1021.538a6.143,6.143,0,1,0-6.143-6.143A6.142,6.142,0,0,0,1375.686,1021.538Z" transform="translate(-1335.464 39.779)" fill="#fff"/>
    <path id="Path_330" data-name="Path 330" d="M1410.453,1021.538a6.143,6.143,0,1,0-6.143-6.143A6.142,6.142,0,0,0,1410.453,1021.538Z" transform="translate(-1336.152 39.779)" fill="#fff"/>
    <path id="Path_331" data-name="Path 331" d="M1445.222,1021.538a6.143,6.143,0,1,0-6.143-6.143A6.142,6.142,0,0,0,1445.222,1021.538Z" transform="translate(-1336.841 39.779)" fill="#fff"/>
    <path id="Path_332" data-name="Path 332" d="M1479.99,1021.538a6.143,6.143,0,1,0-6.143-6.143A6.142,6.142,0,0,0,1479.99,1021.538Z" transform="translate(-1337.53 39.779)" fill="#fff"/>
    <path id="Path_333" data-name="Path 333" d="M1514.757,1021.538a6.143,6.143,0,1,0-6.142-6.143A6.142,6.142,0,0,0,1514.757,1021.538Z" transform="translate(-1338.218 39.779)" fill="#fff"/>
    <path id="Path_334" data-name="Path 334" d="M1549.525,1021.538a6.143,6.143,0,1,0-6.143-6.143A6.142,6.142,0,0,0,1549.525,1021.538Z" transform="translate(-1338.907 39.779)" fill="#fff"/>
  </g>
</svg>
