<svg xmlns="http://www.w3.org/2000/svg" width="44.628" height="43.526" viewBox="0 0 44.628 43.526">
  <path id="bxl-github" d="M24.366,2a22.317,22.317,0,0,0-7.054,43.489c1.116.2,1.519-.485,1.519-1.076,0-.53-.018-1.935-.025-3.794-6.208,1.347-7.519-2.993-7.519-2.993a5.9,5.9,0,0,0-2.477-3.264c-2.025-1.385.154-1.354.154-1.354a4.673,4.673,0,0,1,3.416,2.3c1.991,3.41,5.226,2.425,6.492,1.855a4.784,4.784,0,0,1,1.421-2.984c-4.953-.562-10.161-2.477-10.161-11.029a8.646,8.646,0,0,1,2.291-5.985,8.026,8.026,0,0,1,.221-5.906s1.873-.6,6.134,2.284a21.117,21.117,0,0,1,11.168,0c4.264-2.888,6.134-2.284,6.134-2.284a7.99,7.99,0,0,1,.221,5.906,8.592,8.592,0,0,1,2.291,5.985c0,8.575-5.213,10.459-10.184,11.012a5.347,5.347,0,0,1,1.51,4.13c0,2.984-.027,5.392-.027,6.123,0,.6.4,1.291,1.537,1.072A22.317,22.317,0,0,0,24.366,2Z" transform="translate(-2.052 -2)" fill="#fff" fill-rule="evenodd"/>
</svg>
