<svg xmlns="http://www.w3.org/2000/svg" viewBox="0 0 139.15 33"><defs><style>.cls-1{isolation:isolate;}.cls-2{fill:#fff;}.cls-3{fill:#9f3b3b;}</style></defs><title>Asset 1</title><g id="Layer_2" data-name="Layer 2"><g id="Component_1_1" data-name="Component 1 1"><g id="_YB_" data-name=" YB " class="cls-1"><g class="cls-1"><path class="cls-2" d="M0,20.2V14.4L26.7,4.45v7.3l-16,5.55,16,5.55v7.3Z"/><path class="cls-2" d="M38.15,19.7,26.7,0H36.9L43,11.2,49,0h9.5L47,19.7V33H38.15Z"/><path class="cls-2" d="M60,0H75.1C82.3,0,86,3,86,8.6c0,3.15-1.2,5.4-3.6,6.65v.1c3.55,1.2,5.35,4,5.35,8.15,0,6.15-4,9.5-10.85,9.5H60ZM73.65,13.05c2.7,0,3.7-.8,3.7-3s-.9-2.8-3.45-2.8H68.85v5.75Zm1.4,12.65c2.85,0,3.85-.75,3.85-2.8s-1.15-3-4.35-3h-5.7v5.8Z"/></g><g class="cls-1"><path class="cls-3" d="M103.3,0h7.2L97,33h-7.2Z"/></g><g class="cls-1"><path class="cls-2" d="M112.45,22.85l16-5.55-16-5.55V4.45l26.7,10v5.8l-26.7,10Z"/></g></g></g></g></svg>